<mxfile host="app.diagrams.net" modified="2023-08-02T05:32:46.438Z" agent="Mozilla/5.0 (Windows NT 10.0; Win64; x64) AppleWebKit/537.36 (KHTML, like Gecko) Chrome/115.0.0.0 Safari/537.36 Edg/115.0.1901.188" etag="YVvcaDqeSABYcE1RDJQF" version="21.6.5" type="device">
  <diagram name="Page-1" id="LVRG8oynE-r7RonD2bun">
    <mxGraphModel dx="2077" dy="834" grid="1" gridSize="10" guides="1" tooltips="1" connect="1" arrows="1" fold="1" page="1" pageScale="1" pageWidth="850" pageHeight="1100" math="0" shadow="0">
      <root>
        <mxCell id="0" />
        <mxCell id="1" parent="0" />
        <mxCell id="uq5wE8N02n78VxPnaq30-1" value="0" style="ellipse;whiteSpace=wrap;html=1;aspect=fixed;fontSize=20;" vertex="1" parent="1">
          <mxGeometry x="250" y="180" width="80" height="80" as="geometry" />
        </mxCell>
        <mxCell id="uq5wE8N02n78VxPnaq30-2" value="2" style="ellipse;whiteSpace=wrap;html=1;aspect=fixed;fontSize=20;" vertex="1" parent="1">
          <mxGeometry x="360" y="300" width="80" height="80" as="geometry" />
        </mxCell>
        <mxCell id="uq5wE8N02n78VxPnaq30-3" value="2" style="ellipse;whiteSpace=wrap;html=1;aspect=fixed;fontSize=20;" vertex="1" parent="1">
          <mxGeometry x="530" y="300" width="80" height="80" as="geometry" />
        </mxCell>
        <mxCell id="uq5wE8N02n78VxPnaq30-4" value="1" style="ellipse;whiteSpace=wrap;html=1;aspect=fixed;fontSize=20;" vertex="1" parent="1">
          <mxGeometry x="470" y="430" width="80" height="80" as="geometry" />
        </mxCell>
        <mxCell id="uq5wE8N02n78VxPnaq30-5" value="1" style="ellipse;whiteSpace=wrap;html=1;aspect=fixed;fontSize=20;" vertex="1" parent="1">
          <mxGeometry x="330" y="450" width="80" height="80" as="geometry" />
        </mxCell>
        <mxCell id="uq5wE8N02n78VxPnaq30-6" value="2" style="ellipse;whiteSpace=wrap;html=1;aspect=fixed;fontSize=20;" vertex="1" parent="1">
          <mxGeometry x="200" y="340" width="80" height="80" as="geometry" />
        </mxCell>
        <mxCell id="uq5wE8N02n78VxPnaq30-7" value="&lt;font color=&quot;#ff0000&quot;&gt;&lt;span style=&quot;font-size: 49px;&quot;&gt;2&lt;/span&gt;&lt;/font&gt;" style="ellipse;whiteSpace=wrap;html=1;aspect=fixed;fontSize=20;" vertex="1" parent="1">
          <mxGeometry x="425" y="190" width="80" height="80" as="geometry" />
        </mxCell>
        <mxCell id="uq5wE8N02n78VxPnaq30-8" value="" style="endArrow=classic;html=1;rounded=0;entryX=0;entryY=0.5;entryDx=0;entryDy=0;fontSize=20;" edge="1" parent="1" source="uq5wE8N02n78VxPnaq30-1" target="uq5wE8N02n78VxPnaq30-7">
          <mxGeometry width="50" height="50" relative="1" as="geometry">
            <mxPoint x="370" y="190" as="sourcePoint" />
            <mxPoint x="420" y="140" as="targetPoint" />
          </mxGeometry>
        </mxCell>
        <mxCell id="uq5wE8N02n78VxPnaq30-9" value="" style="endArrow=classic;html=1;rounded=0;exitX=0.388;exitY=1.019;exitDx=0;exitDy=0;exitPerimeter=0;entryX=0.5;entryY=0;entryDx=0;entryDy=0;fontSize=20;" edge="1" parent="1" source="uq5wE8N02n78VxPnaq30-1" target="uq5wE8N02n78VxPnaq30-6">
          <mxGeometry width="50" height="50" relative="1" as="geometry">
            <mxPoint x="140" y="340" as="sourcePoint" />
            <mxPoint x="190" y="290" as="targetPoint" />
          </mxGeometry>
        </mxCell>
        <mxCell id="uq5wE8N02n78VxPnaq30-10" value="" style="endArrow=classic;html=1;rounded=0;exitX=0.725;exitY=0.963;exitDx=0;exitDy=0;exitPerimeter=0;entryX=0.056;entryY=0.213;entryDx=0;entryDy=0;entryPerimeter=0;fontSize=20;" edge="1" parent="1" source="uq5wE8N02n78VxPnaq30-1" target="uq5wE8N02n78VxPnaq30-2">
          <mxGeometry width="50" height="50" relative="1" as="geometry">
            <mxPoint x="310" y="370" as="sourcePoint" />
            <mxPoint x="360" y="320" as="targetPoint" />
          </mxGeometry>
        </mxCell>
        <mxCell id="uq5wE8N02n78VxPnaq30-11" value="" style="endArrow=classic;html=1;rounded=0;exitX=0;exitY=1;exitDx=0;exitDy=0;entryX=1;entryY=0.5;entryDx=0;entryDy=0;fontSize=20;" edge="1" parent="1" source="uq5wE8N02n78VxPnaq30-2" target="uq5wE8N02n78VxPnaq30-6">
          <mxGeometry width="50" height="50" relative="1" as="geometry">
            <mxPoint x="170" y="520" as="sourcePoint" />
            <mxPoint x="220" y="470" as="targetPoint" />
          </mxGeometry>
        </mxCell>
        <mxCell id="uq5wE8N02n78VxPnaq30-12" value="" style="endArrow=classic;html=1;rounded=0;exitX=1;exitY=0;exitDx=0;exitDy=0;entryX=0.306;entryY=1.031;entryDx=0;entryDy=0;entryPerimeter=0;fontSize=20;" edge="1" parent="1" source="uq5wE8N02n78VxPnaq30-2" target="uq5wE8N02n78VxPnaq30-7">
          <mxGeometry width="50" height="50" relative="1" as="geometry">
            <mxPoint x="660" y="460" as="sourcePoint" />
            <mxPoint x="710" y="410" as="targetPoint" />
          </mxGeometry>
        </mxCell>
        <mxCell id="uq5wE8N02n78VxPnaq30-13" value="" style="endArrow=classic;html=1;rounded=0;exitX=0.331;exitY=1.019;exitDx=0;exitDy=0;exitPerimeter=0;entryX=0.5;entryY=0;entryDx=0;entryDy=0;fontSize=20;" edge="1" parent="1" source="uq5wE8N02n78VxPnaq30-2" target="uq5wE8N02n78VxPnaq30-5">
          <mxGeometry width="50" height="50" relative="1" as="geometry">
            <mxPoint x="590" y="470" as="sourcePoint" />
            <mxPoint x="640" y="420" as="targetPoint" />
          </mxGeometry>
        </mxCell>
        <mxCell id="uq5wE8N02n78VxPnaq30-14" value="" style="endArrow=classic;html=1;rounded=0;exitX=0.988;exitY=0.369;exitDx=0;exitDy=0;exitPerimeter=0;sketch=1;curveFitting=1;jiggle=2;entryX=0;entryY=0.5;entryDx=0;entryDy=0;fontSize=20;" edge="1" parent="1" target="uq5wE8N02n78VxPnaq30-3">
          <mxGeometry width="50" height="50" relative="1" as="geometry">
            <mxPoint x="439.03999999999996" y="340" as="sourcePoint" />
            <mxPoint x="760" y="220.48" as="targetPoint" />
          </mxGeometry>
        </mxCell>
        <mxCell id="uq5wE8N02n78VxPnaq30-15" value="" style="endArrow=classic;html=1;rounded=0;exitX=1;exitY=1;exitDx=0;exitDy=0;fontSize=20;" edge="1" parent="1" source="uq5wE8N02n78VxPnaq30-2" target="uq5wE8N02n78VxPnaq30-4">
          <mxGeometry width="50" height="50" relative="1" as="geometry">
            <mxPoint x="620" y="500" as="sourcePoint" />
            <mxPoint x="670" y="450" as="targetPoint" />
          </mxGeometry>
        </mxCell>
        <mxCell id="uq5wE8N02n78VxPnaq30-16" value="0" style="ellipse;whiteSpace=wrap;html=1;aspect=fixed;fontSize=20;" vertex="1" parent="1">
          <mxGeometry x="260" y="680" width="80" height="80" as="geometry" />
        </mxCell>
        <mxCell id="uq5wE8N02n78VxPnaq30-17" value="2" style="ellipse;whiteSpace=wrap;html=1;aspect=fixed;fontSize=20;" vertex="1" parent="1">
          <mxGeometry x="370" y="800" width="80" height="80" as="geometry" />
        </mxCell>
        <mxCell id="uq5wE8N02n78VxPnaq30-18" value="2" style="ellipse;whiteSpace=wrap;html=1;aspect=fixed;fontSize=20;" vertex="1" parent="1">
          <mxGeometry x="540" y="800" width="80" height="80" as="geometry" />
        </mxCell>
        <mxCell id="uq5wE8N02n78VxPnaq30-19" value="1" style="ellipse;whiteSpace=wrap;html=1;aspect=fixed;fontSize=20;" vertex="1" parent="1">
          <mxGeometry x="480" y="930" width="80" height="80" as="geometry" />
        </mxCell>
        <mxCell id="uq5wE8N02n78VxPnaq30-20" value="1" style="ellipse;whiteSpace=wrap;html=1;aspect=fixed;fontSize=20;" vertex="1" parent="1">
          <mxGeometry x="340" y="950" width="80" height="80" as="geometry" />
        </mxCell>
        <mxCell id="uq5wE8N02n78VxPnaq30-21" value="2" style="ellipse;whiteSpace=wrap;html=1;aspect=fixed;fontSize=20;" vertex="1" parent="1">
          <mxGeometry x="210" y="840" width="80" height="80" as="geometry" />
        </mxCell>
        <mxCell id="uq5wE8N02n78VxPnaq30-22" value="&lt;font color=&quot;#ff0000&quot; style=&quot;font-size: 51px;&quot;&gt;1&lt;/font&gt;" style="ellipse;whiteSpace=wrap;html=1;aspect=fixed;fontSize=20;" vertex="1" parent="1">
          <mxGeometry x="435" y="690" width="80" height="80" as="geometry" />
        </mxCell>
        <mxCell id="uq5wE8N02n78VxPnaq30-23" value="" style="endArrow=classic;html=1;rounded=0;entryX=0;entryY=0.5;entryDx=0;entryDy=0;fontSize=20;" edge="1" parent="1" source="uq5wE8N02n78VxPnaq30-16" target="uq5wE8N02n78VxPnaq30-22">
          <mxGeometry width="50" height="50" relative="1" as="geometry">
            <mxPoint x="380" y="690" as="sourcePoint" />
            <mxPoint x="430" y="640" as="targetPoint" />
          </mxGeometry>
        </mxCell>
        <mxCell id="uq5wE8N02n78VxPnaq30-24" value="" style="endArrow=classic;html=1;rounded=0;exitX=0.388;exitY=1.019;exitDx=0;exitDy=0;exitPerimeter=0;entryX=0.5;entryY=0;entryDx=0;entryDy=0;fontSize=20;" edge="1" parent="1" source="uq5wE8N02n78VxPnaq30-16" target="uq5wE8N02n78VxPnaq30-21">
          <mxGeometry width="50" height="50" relative="1" as="geometry">
            <mxPoint x="150" y="840" as="sourcePoint" />
            <mxPoint x="200" y="790" as="targetPoint" />
          </mxGeometry>
        </mxCell>
        <mxCell id="uq5wE8N02n78VxPnaq30-25" value="" style="endArrow=classic;html=1;rounded=0;exitX=0.725;exitY=0.963;exitDx=0;exitDy=0;exitPerimeter=0;entryX=0.056;entryY=0.213;entryDx=0;entryDy=0;entryPerimeter=0;fontSize=20;" edge="1" parent="1" source="uq5wE8N02n78VxPnaq30-16" target="uq5wE8N02n78VxPnaq30-17">
          <mxGeometry width="50" height="50" relative="1" as="geometry">
            <mxPoint x="320" y="870" as="sourcePoint" />
            <mxPoint x="370" y="820" as="targetPoint" />
          </mxGeometry>
        </mxCell>
        <mxCell id="uq5wE8N02n78VxPnaq30-26" value="" style="endArrow=classic;html=1;rounded=0;exitX=0;exitY=1;exitDx=0;exitDy=0;entryX=1;entryY=0.5;entryDx=0;entryDy=0;fontSize=20;" edge="1" parent="1" source="uq5wE8N02n78VxPnaq30-17" target="uq5wE8N02n78VxPnaq30-21">
          <mxGeometry width="50" height="50" relative="1" as="geometry">
            <mxPoint x="180" y="1020" as="sourcePoint" />
            <mxPoint x="230" y="970" as="targetPoint" />
          </mxGeometry>
        </mxCell>
        <mxCell id="uq5wE8N02n78VxPnaq30-27" value="" style="endArrow=classic;html=1;rounded=0;exitX=1;exitY=0;exitDx=0;exitDy=0;entryX=0.306;entryY=1.031;entryDx=0;entryDy=0;entryPerimeter=0;fontSize=20;" edge="1" parent="1" source="uq5wE8N02n78VxPnaq30-17" target="uq5wE8N02n78VxPnaq30-22">
          <mxGeometry width="50" height="50" relative="1" as="geometry">
            <mxPoint x="670" y="960" as="sourcePoint" />
            <mxPoint x="720" y="910" as="targetPoint" />
          </mxGeometry>
        </mxCell>
        <mxCell id="uq5wE8N02n78VxPnaq30-28" value="" style="endArrow=classic;html=1;rounded=0;exitX=0.331;exitY=1.019;exitDx=0;exitDy=0;exitPerimeter=0;entryX=0.5;entryY=0;entryDx=0;entryDy=0;fontSize=20;" edge="1" parent="1" source="uq5wE8N02n78VxPnaq30-17" target="uq5wE8N02n78VxPnaq30-20">
          <mxGeometry width="50" height="50" relative="1" as="geometry">
            <mxPoint x="600" y="970" as="sourcePoint" />
            <mxPoint x="650" y="920" as="targetPoint" />
          </mxGeometry>
        </mxCell>
        <mxCell id="uq5wE8N02n78VxPnaq30-29" value="" style="endArrow=classic;html=1;rounded=0;exitX=0.988;exitY=0.369;exitDx=0;exitDy=0;exitPerimeter=0;sketch=1;curveFitting=1;jiggle=2;entryX=0;entryY=0.5;entryDx=0;entryDy=0;fontSize=20;" edge="1" parent="1" target="uq5wE8N02n78VxPnaq30-18">
          <mxGeometry width="50" height="50" relative="1" as="geometry">
            <mxPoint x="449.03999999999996" y="840" as="sourcePoint" />
            <mxPoint x="770" y="720.48" as="targetPoint" />
          </mxGeometry>
        </mxCell>
        <mxCell id="uq5wE8N02n78VxPnaq30-30" value="" style="endArrow=classic;html=1;rounded=0;exitX=1;exitY=1;exitDx=0;exitDy=0;fontSize=20;" edge="1" parent="1" source="uq5wE8N02n78VxPnaq30-17" target="uq5wE8N02n78VxPnaq30-19">
          <mxGeometry width="50" height="50" relative="1" as="geometry">
            <mxPoint x="630" y="1000" as="sourcePoint" />
            <mxPoint x="680" y="950" as="targetPoint" />
          </mxGeometry>
        </mxCell>
        <mxCell id="uq5wE8N02n78VxPnaq30-31" value="" style="shape=flexArrow;endArrow=classic;html=1;rounded=0;" edge="1" parent="1">
          <mxGeometry width="50" height="50" relative="1" as="geometry">
            <mxPoint x="630" y="370" as="sourcePoint" />
            <mxPoint x="740" y="370" as="targetPoint" />
          </mxGeometry>
        </mxCell>
        <mxCell id="uq5wE8N02n78VxPnaq30-32" value="&lt;font color=&quot;#ff0000&quot; style=&quot;font-size: 24px;&quot;&gt;Person&lt;/font&gt;" style="ellipse;whiteSpace=wrap;html=1;aspect=fixed;" vertex="1" parent="1">
          <mxGeometry x="-30" y="240" width="80" height="80" as="geometry" />
        </mxCell>
        <mxCell id="uq5wE8N02n78VxPnaq30-33" value="&lt;font style=&quot;font-size: 25px;&quot;&gt;COST : 10&lt;/font&gt;" style="text;html=1;strokeColor=none;fillColor=none;align=center;verticalAlign=middle;whiteSpace=wrap;rounded=0;" vertex="1" parent="1">
          <mxGeometry x="760" y="320" width="200" height="30" as="geometry" />
        </mxCell>
        <mxCell id="uq5wE8N02n78VxPnaq30-49" value="&lt;font style=&quot;font-size: 25px;&quot;&gt;COST : 9&lt;/font&gt;" style="text;html=1;strokeColor=none;fillColor=none;align=center;verticalAlign=middle;whiteSpace=wrap;rounded=0;" vertex="1" parent="1">
          <mxGeometry x="780" y="780" width="200" height="30" as="geometry" />
        </mxCell>
        <mxCell id="uq5wE8N02n78VxPnaq30-50" value="" style="shape=flexArrow;endArrow=classic;html=1;rounded=0;" edge="1" parent="1">
          <mxGeometry width="50" height="50" relative="1" as="geometry">
            <mxPoint x="640" y="838.5699999999999" as="sourcePoint" />
            <mxPoint x="750" y="838.5699999999999" as="targetPoint" />
          </mxGeometry>
        </mxCell>
      </root>
    </mxGraphModel>
  </diagram>
</mxfile>
